<mxfile host="app.diagrams.net" modified="2023-10-25T08:44:13.085Z" agent="Mozilla/5.0 (Windows NT 10.0; Win64; x64) AppleWebKit/537.36 (KHTML, like Gecko) Chrome/118.0.0.0 Safari/537.36" etag="DzR1OmMX6MLmyrkvtDKc" version="22.0.7" type="github">
  <diagram name="Page-1" id="0d4kpQkp0rt_nCVyn7hy">
    <mxGraphModel dx="2350" dy="763" grid="1" gridSize="10" guides="1" tooltips="1" connect="1" arrows="1" fold="1" page="1" pageScale="1" pageWidth="850" pageHeight="1100" math="0" shadow="0">
      <root>
        <mxCell id="0" />
        <mxCell id="1" parent="0" />
        <mxCell id="jenSMxoXQqrwk--JjhD7-1" value="company" style="whiteSpace=wrap;html=1;align=center;fillColor=#d80073;fontColor=#ffffff;strokeColor=#A50040;" parent="1" vertex="1">
          <mxGeometry x="370" y="80" width="100" height="40" as="geometry" />
        </mxCell>
        <mxCell id="jenSMxoXQqrwk--JjhD7-2" value="Branch&lt;br&gt;" style="whiteSpace=wrap;html=1;align=center;fillColor=#d80073;fontColor=#ffffff;strokeColor=#A50040;" parent="1" vertex="1">
          <mxGeometry x="560" y="250" width="100" height="40" as="geometry" />
        </mxCell>
        <mxCell id="jenSMxoXQqrwk--JjhD7-3" value="PowerStation&lt;br&gt;" style="whiteSpace=wrap;html=1;align=center;fillColor=#d80073;fontColor=#ffffff;strokeColor=#A50040;" parent="1" vertex="1">
          <mxGeometry x="360" y="448" width="100" height="40" as="geometry" />
        </mxCell>
        <mxCell id="jenSMxoXQqrwk--JjhD7-4" value="Name" style="ellipse;whiteSpace=wrap;html=1;align=center;fillColor=#1ba1e2;fontColor=#ffffff;strokeColor=#006EAF;" parent="1" vertex="1">
          <mxGeometry x="630" y="448" width="100" height="40" as="geometry" />
        </mxCell>
        <mxCell id="jenSMxoXQqrwk--JjhD7-5" value="" style="endArrow=none;html=1;rounded=0;exitX=1;exitY=0.5;exitDx=0;exitDy=0;" parent="1" source="jenSMxoXQqrwk--JjhD7-3" target="jenSMxoXQqrwk--JjhD7-4" edge="1">
          <mxGeometry relative="1" as="geometry">
            <mxPoint x="520" y="540" as="sourcePoint" />
            <mxPoint x="680" y="540" as="targetPoint" />
          </mxGeometry>
        </mxCell>
        <mxCell id="jenSMxoXQqrwk--JjhD7-6" value="position&lt;br&gt;" style="ellipse;whiteSpace=wrap;html=1;align=center;fillColor=#1ba1e2;fontColor=#ffffff;strokeColor=#006EAF;" parent="1" vertex="1">
          <mxGeometry x="710" y="250" width="100" height="40" as="geometry" />
        </mxCell>
        <mxCell id="jenSMxoXQqrwk--JjhD7-7" value="" style="endArrow=none;html=1;rounded=0;entryX=0;entryY=0.5;entryDx=0;entryDy=0;exitX=1;exitY=0.5;exitDx=0;exitDy=0;" parent="1" source="jenSMxoXQqrwk--JjhD7-2" target="jenSMxoXQqrwk--JjhD7-6" edge="1">
          <mxGeometry relative="1" as="geometry">
            <mxPoint x="650" y="260" as="sourcePoint" />
            <mxPoint x="690" y="190" as="targetPoint" />
          </mxGeometry>
        </mxCell>
        <mxCell id="jenSMxoXQqrwk--JjhD7-8" value="Customer&lt;br&gt;" style="whiteSpace=wrap;html=1;align=center;fillColor=#d80073;fontColor=#ffffff;strokeColor=#A50040;" parent="1" vertex="1">
          <mxGeometry x="-20" y="170" width="100" height="40" as="geometry" />
        </mxCell>
        <mxCell id="jenSMxoXQqrwk--JjhD7-9" value="Điện kế" style="whiteSpace=wrap;html=1;align=center;fillColor=#d80073;fontColor=#ffffff;strokeColor=#A50040;" parent="1" vertex="1">
          <mxGeometry x="-20" y="448" width="100" height="40" as="geometry" />
        </mxCell>
        <mxCell id="jenSMxoXQqrwk--JjhD7-10" value="address" style="ellipse;whiteSpace=wrap;html=1;align=center;fillColor=#1ba1e2;fontColor=#ffffff;strokeColor=#006EAF;" parent="1" vertex="1">
          <mxGeometry x="-160" y="50" width="100" height="40" as="geometry" />
        </mxCell>
        <mxCell id="jenSMxoXQqrwk--JjhD7-11" value="CustomerID" style="ellipse;whiteSpace=wrap;html=1;align=center;fontStyle=4;fillColor=#1ba1e2;fontColor=#ffffff;strokeColor=#006EAF;" parent="1" vertex="1">
          <mxGeometry x="110" y="20" width="100" height="40" as="geometry" />
        </mxCell>
        <mxCell id="jenSMxoXQqrwk--JjhD7-12" value="Name" style="ellipse;whiteSpace=wrap;html=1;align=center;fillColor=#1ba1e2;fontColor=#ffffff;strokeColor=#006EAF;" parent="1" vertex="1">
          <mxGeometry x="-20" y="20" width="100" height="40" as="geometry" />
        </mxCell>
        <mxCell id="jenSMxoXQqrwk--JjhD7-14" value="phone" style="ellipse;whiteSpace=wrap;html=1;align=center;fillColor=#1ba1e2;fontColor=#ffffff;strokeColor=#006EAF;" parent="1" vertex="1">
          <mxGeometry x="-250" y="140" width="100" height="40" as="geometry" />
        </mxCell>
        <mxCell id="jenSMxoXQqrwk--JjhD7-16" value="" style="endArrow=none;html=1;rounded=0;exitX=0.996;exitY=0.72;exitDx=0;exitDy=0;exitPerimeter=0;entryX=0.5;entryY=0;entryDx=0;entryDy=0;" parent="1" source="jenSMxoXQqrwk--JjhD7-10" target="jenSMxoXQqrwk--JjhD7-8" edge="1">
          <mxGeometry relative="1" as="geometry">
            <mxPoint x="-50" y="220" as="sourcePoint" />
            <mxPoint x="110" y="220" as="targetPoint" />
          </mxGeometry>
        </mxCell>
        <mxCell id="jenSMxoXQqrwk--JjhD7-17" value="" style="endArrow=none;html=1;rounded=0;exitX=0.5;exitY=1;exitDx=0;exitDy=0;entryX=0.5;entryY=0;entryDx=0;entryDy=0;" parent="1" source="jenSMxoXQqrwk--JjhD7-12" target="jenSMxoXQqrwk--JjhD7-8" edge="1">
          <mxGeometry relative="1" as="geometry">
            <mxPoint x="30" y="210" as="sourcePoint" />
            <mxPoint x="190" y="210" as="targetPoint" />
          </mxGeometry>
        </mxCell>
        <mxCell id="jenSMxoXQqrwk--JjhD7-18" value="" style="endArrow=none;html=1;rounded=0;exitX=1;exitY=0.5;exitDx=0;exitDy=0;entryX=0.5;entryY=0;entryDx=0;entryDy=0;" parent="1" source="jenSMxoXQqrwk--JjhD7-14" target="jenSMxoXQqrwk--JjhD7-8" edge="1">
          <mxGeometry relative="1" as="geometry">
            <mxPoint x="-190" y="260" as="sourcePoint" />
            <mxPoint x="-30" y="260" as="targetPoint" />
          </mxGeometry>
        </mxCell>
        <mxCell id="jenSMxoXQqrwk--JjhD7-19" value="" style="endArrow=none;html=1;rounded=0;exitX=0.5;exitY=0;exitDx=0;exitDy=0;entryX=0.5;entryY=1;entryDx=0;entryDy=0;" parent="1" source="jenSMxoXQqrwk--JjhD7-8" target="jenSMxoXQqrwk--JjhD7-11" edge="1">
          <mxGeometry relative="1" as="geometry">
            <mxPoint x="140" y="210" as="sourcePoint" />
            <mxPoint x="300" y="210" as="targetPoint" />
          </mxGeometry>
        </mxCell>
        <mxCell id="jenSMxoXQqrwk--JjhD7-21" value="Use" style="shape=rhombus;perimeter=rhombusPerimeter;whiteSpace=wrap;html=1;align=center;fillColor=#60a917;fontColor=#ffffff;strokeColor=#2D7600;" parent="1" vertex="1">
          <mxGeometry x="170" y="438" width="120" height="60" as="geometry" />
        </mxCell>
        <mxCell id="jenSMxoXQqrwk--JjhD7-23" value="" style="endArrow=none;html=1;rounded=0;entryX=0;entryY=0.5;entryDx=0;entryDy=0;" parent="1" source="jenSMxoXQqrwk--JjhD7-9" target="jenSMxoXQqrwk--JjhD7-21" edge="1">
          <mxGeometry relative="1" as="geometry">
            <mxPoint x="80" y="400" as="sourcePoint" />
            <mxPoint x="240" y="400" as="targetPoint" />
          </mxGeometry>
        </mxCell>
        <mxCell id="jenSMxoXQqrwk--JjhD7-24" value="" style="endArrow=none;html=1;rounded=0;exitX=1;exitY=0.5;exitDx=0;exitDy=0;entryX=0;entryY=0.5;entryDx=0;entryDy=0;" parent="1" source="jenSMxoXQqrwk--JjhD7-21" target="jenSMxoXQqrwk--JjhD7-3" edge="1">
          <mxGeometry relative="1" as="geometry">
            <mxPoint x="200" y="537" as="sourcePoint" />
            <mxPoint x="470" y="369" as="targetPoint" />
          </mxGeometry>
        </mxCell>
        <mxCell id="jenSMxoXQqrwk--JjhD7-25" value="" style="endArrow=none;html=1;rounded=0;entryX=0.5;entryY=1;entryDx=0;entryDy=0;exitX=0.5;exitY=0;exitDx=0;exitDy=0;" parent="1" source="jenSMxoXQqrwk--JjhD7-26" target="jenSMxoXQqrwk--JjhD7-8" edge="1">
          <mxGeometry relative="1" as="geometry">
            <mxPoint x="-250" y="260" as="sourcePoint" />
            <mxPoint x="-90" y="260" as="targetPoint" />
          </mxGeometry>
        </mxCell>
        <mxCell id="jenSMxoXQqrwk--JjhD7-26" value="Hire&lt;br&gt;" style="shape=rhombus;perimeter=rhombusPerimeter;whiteSpace=wrap;html=1;align=center;fillColor=#60a917;fontColor=#ffffff;strokeColor=#2D7600;" parent="1" vertex="1">
          <mxGeometry x="-30" y="280" width="120" height="60" as="geometry" />
        </mxCell>
        <mxCell id="jenSMxoXQqrwk--JjhD7-27" value="" style="endArrow=none;html=1;rounded=0;entryX=0.5;entryY=1;entryDx=0;entryDy=0;" parent="1" source="jenSMxoXQqrwk--JjhD7-9" target="jenSMxoXQqrwk--JjhD7-26" edge="1">
          <mxGeometry relative="1" as="geometry">
            <mxPoint x="-120" y="400" as="sourcePoint" />
            <mxPoint x="40" y="400" as="targetPoint" />
          </mxGeometry>
        </mxCell>
        <mxCell id="jenSMxoXQqrwk--JjhD7-28" value="" style="endArrow=none;html=1;rounded=0;exitX=0.408;exitY=1;exitDx=0;exitDy=0;exitPerimeter=0;entryX=0.5;entryY=0;entryDx=0;entryDy=0;" parent="1" source="jenSMxoXQqrwk--JjhD7-1" target="jenSMxoXQqrwk--JjhD7-29" edge="1">
          <mxGeometry relative="1" as="geometry">
            <mxPoint x="570" y="150" as="sourcePoint" />
            <mxPoint x="730" y="150" as="targetPoint" />
          </mxGeometry>
        </mxCell>
        <mxCell id="jenSMxoXQqrwk--JjhD7-29" value="Manage" style="shape=rhombus;perimeter=rhombusPerimeter;whiteSpace=wrap;html=1;align=center;fillColor=#60a917;fontColor=#ffffff;strokeColor=#2D7600;" parent="1" vertex="1">
          <mxGeometry x="350" y="240" width="120" height="60" as="geometry" />
        </mxCell>
        <mxCell id="jenSMxoXQqrwk--JjhD7-30" value="" style="endArrow=none;html=1;rounded=0;entryX=1;entryY=0.5;entryDx=0;entryDy=0;" parent="1" source="jenSMxoXQqrwk--JjhD7-2" target="jenSMxoXQqrwk--JjhD7-29" edge="1">
          <mxGeometry relative="1" as="geometry">
            <mxPoint x="450" y="240" as="sourcePoint" />
            <mxPoint x="610" y="240" as="targetPoint" />
          </mxGeometry>
        </mxCell>
        <mxCell id="jenSMxoXQqrwk--JjhD7-31" value="" style="endArrow=none;html=1;rounded=0;exitX=0.5;exitY=1;exitDx=0;exitDy=0;entryX=0.5;entryY=0;entryDx=0;entryDy=0;" parent="1" source="jenSMxoXQqrwk--JjhD7-29" target="jenSMxoXQqrwk--JjhD7-3" edge="1">
          <mxGeometry relative="1" as="geometry">
            <mxPoint x="630" y="280" as="sourcePoint" />
            <mxPoint x="511.5999999999999" y="501.6" as="targetPoint" />
          </mxGeometry>
        </mxCell>
        <mxCell id="jenSMxoXQqrwk--JjhD7-32" value="(1,n)" style="text;html=1;align=center;verticalAlign=middle;resizable=0;points=[];autosize=1;strokeColor=none;fillColor=none;" parent="1" vertex="1">
          <mxGeometry x="440" y="108" width="50" height="30" as="geometry" />
        </mxCell>
        <mxCell id="jenSMxoXQqrwk--JjhD7-33" value="(1,1)" style="text;html=1;align=center;verticalAlign=middle;resizable=0;points=[];autosize=1;strokeColor=none;fillColor=none;" parent="1" vertex="1">
          <mxGeometry x="520" y="210" width="50" height="30" as="geometry" />
        </mxCell>
        <mxCell id="jenSMxoXQqrwk--JjhD7-36" value="employee&lt;br&gt;" style="whiteSpace=wrap;html=1;align=center;fillColor=#d80073;fontColor=#ffffff;strokeColor=#A50040;" parent="1" vertex="1">
          <mxGeometry x="220" y="610" width="100" height="40" as="geometry" />
        </mxCell>
        <mxCell id="jenSMxoXQqrwk--JjhD7-37" value="record&lt;br&gt;" style="shape=rhombus;perimeter=rhombusPerimeter;whiteSpace=wrap;html=1;align=center;fillColor=#60a917;fontColor=#ffffff;strokeColor=#2D7600;" parent="1" vertex="1">
          <mxGeometry x="-30" y="600" width="120" height="60" as="geometry" />
        </mxCell>
        <mxCell id="jenSMxoXQqrwk--JjhD7-38" value="" style="endArrow=none;html=1;rounded=0;exitX=0.5;exitY=1;exitDx=0;exitDy=0;entryX=0.5;entryY=0;entryDx=0;entryDy=0;" parent="1" source="jenSMxoXQqrwk--JjhD7-9" target="jenSMxoXQqrwk--JjhD7-37" edge="1">
          <mxGeometry relative="1" as="geometry">
            <mxPoint x="-60" y="540" as="sourcePoint" />
            <mxPoint x="100" y="540" as="targetPoint" />
          </mxGeometry>
        </mxCell>
        <mxCell id="jenSMxoXQqrwk--JjhD7-39" value="" style="endArrow=none;html=1;rounded=0;exitX=1;exitY=0.5;exitDx=0;exitDy=0;entryX=0;entryY=0.5;entryDx=0;entryDy=0;" parent="1" source="jenSMxoXQqrwk--JjhD7-37" target="jenSMxoXQqrwk--JjhD7-36" edge="1">
          <mxGeometry relative="1" as="geometry">
            <mxPoint x="90" y="580" as="sourcePoint" />
            <mxPoint x="250" y="580" as="targetPoint" />
          </mxGeometry>
        </mxCell>
        <mxCell id="jenSMxoXQqrwk--JjhD7-41" value="(1,1)" style="text;html=1;align=center;verticalAlign=middle;resizable=0;points=[];autosize=1;strokeColor=none;fillColor=none;" parent="1" vertex="1">
          <mxGeometry x="450" y="468" width="50" height="30" as="geometry" />
        </mxCell>
        <mxCell id="jenSMxoXQqrwk--JjhD7-42" value="(1,1)" style="text;html=1;align=center;verticalAlign=middle;resizable=0;points=[];autosize=1;strokeColor=none;fillColor=none;" parent="1" vertex="1">
          <mxGeometry x="25" y="418" width="50" height="30" as="geometry" />
        </mxCell>
        <mxCell id="jenSMxoXQqrwk--JjhD7-43" value="(1,n)" style="text;html=1;align=center;verticalAlign=middle;resizable=0;points=[];autosize=1;strokeColor=none;fillColor=none;" parent="1" vertex="1">
          <mxGeometry x="25" y="210" width="50" height="30" as="geometry" />
        </mxCell>
        <mxCell id="jenSMxoXQqrwk--JjhD7-45" value="name" style="ellipse;whiteSpace=wrap;html=1;align=center;fillColor=#1ba1e2;fontColor=#ffffff;strokeColor=#006EAF;" parent="1" vertex="1">
          <mxGeometry x="460" y="610" width="100" height="40" as="geometry" />
        </mxCell>
        <mxCell id="jenSMxoXQqrwk--JjhD7-50" value="" style="endArrow=none;html=1;rounded=0;exitX=1;exitY=0.5;exitDx=0;exitDy=0;entryX=0;entryY=0.5;entryDx=0;entryDy=0;" parent="1" source="jenSMxoXQqrwk--JjhD7-36" target="jenSMxoXQqrwk--JjhD7-45" edge="1">
          <mxGeometry relative="1" as="geometry">
            <mxPoint x="310" y="550" as="sourcePoint" />
            <mxPoint x="470" y="550" as="targetPoint" />
          </mxGeometry>
        </mxCell>
        <mxCell id="jenSMxoXQqrwk--JjhD7-51" value="Bill" style="ellipse;whiteSpace=wrap;html=1;align=center;fillColor=#1ba1e2;fontColor=#ffffff;strokeColor=#006EAF;" parent="1" vertex="1">
          <mxGeometry x="-240" y="290" width="100" height="40" as="geometry" />
        </mxCell>
        <mxCell id="jenSMxoXQqrwk--JjhD7-52" value="" style="endArrow=none;html=1;rounded=0;exitX=1;exitY=0.5;exitDx=0;exitDy=0;entryX=0;entryY=0.5;entryDx=0;entryDy=0;" parent="1" source="jenSMxoXQqrwk--JjhD7-51" target="jenSMxoXQqrwk--JjhD7-26" edge="1">
          <mxGeometry relative="1" as="geometry">
            <mxPoint x="-210" y="380" as="sourcePoint" />
            <mxPoint x="-50" y="380" as="targetPoint" />
          </mxGeometry>
        </mxCell>
        <mxCell id="jenSMxoXQqrwk--JjhD7-53" value="(1,1)" style="text;html=1;align=center;verticalAlign=middle;resizable=0;points=[];autosize=1;strokeColor=none;fillColor=none;" parent="1" vertex="1">
          <mxGeometry x="75" y="468" width="50" height="30" as="geometry" />
        </mxCell>
      </root>
    </mxGraphModel>
  </diagram>
</mxfile>
